<svg id="a"
     xmlns="http://www.w3.org/2000/svg" viewBox="0 0 260 260">
     <defs>
          <style>.b{fill:#FFFFFF;}.c{fill:#262626;}</style>
     </defs>
     <rect class="c" x="0" y="0" width="260" height="260" rx="130" ry="130"/>
     <path class="b" d="M169.96,216.6c-1.08-.36-2.47-.63-4.18-.81-4.67-.54-9.3-2.45-13.88-5.73-4.58-3.28-8.94-7.39-13.07-12.33-4.13-4.94-7.98-10.45-11.52-16.51-3.55-6.07-6.6-12.18-9.17-18.33-2.56-6.15-4.58-12.13-6.07-17.93-1.48-5.8-2.22-10.85-2.22-15.16,2.7-3.77,5.75-7.97,9.17-12.6,3.41-4.63,7.05-9.41,10.92-14.36,3.86-4.94,7.91-9.88,12.13-14.83,4.22-4.94,9.57-10.68,12.8-13.95,3.23-3.27,8.63-8.29,12.94-11.79,4.31-3.5,8.49-6.29,12.53-8.36,.81-.45,1.53-.83,2.16-1.15,.63-.31,1.23-.58,1.82-.81,.58-.22,1.21-.43,1.89-.61,.67-.18,1.5-.36,2.49-.54,.81-.18,1.93-.36,3.37-.54,1.44-.18,2.87-.43,4.31-.74,1.44-.31,2.67-.79,3.71-1.41,1.03-.63,1.55-1.48,1.55-2.56,0-1.35-.54-2.45-1.62-3.3-1.08-.85-2.25-1.28-3.5-1.28-4.4,0-9.3,1.6-14.69,4.79-5.39,3.19-10.92,7.34-16.58,12.47-5.66,5.12-11.34,10.85-17.05,17.19-5.71,6.33-11.08,12.65-16.11,18.94-5.03,6.29-9.59,12.22-13.68,17.79-4.09,5.57-7.39,10.15-9.91,13.75l-1.35-.54c-.99,.27-1.6,.94-1.82,2.02-.23,1.08-.34,2.02-.34,2.83-6.29,8.81-12.38,17.61-18.26,26.42-5.89,8.81-11.84,17.66-17.86,26.55,0-4.04,.85-9.41,2.56-16.11,1.71-6.69,3.91-14.06,6.6-22.11,2.7-8.04,5.75-16.4,9.17-25.07,3.41-8.67,6.81-17.05,10.18-25.14s6.56-15.52,9.57-22.31c3.01-6.78,5.5-12.24,7.48-16.38,.36-.81,1.03-2.04,2.02-3.71,.99-1.66,2.02-3.37,3.1-5.12,1.08-1.75,2.04-3.39,2.9-4.92,.85-1.53,1.28-2.51,1.28-2.96,0-.99-.29-2.02-.88-3.1-.59-1.08-1.42-1.62-2.49-1.62-1.71,0-3.28,.97-4.72,2.9-1.44,1.93-2.74,4.18-3.91,6.74-1.17,2.56-2.16,5.12-2.97,7.68-.81,2.56-1.44,4.47-1.89,5.73l-46.9,115.38c-.72,1.62-1.17,3.33-1.35,5.12-.18,1.8-.27,3.59-.27,5.39s.58,3.42,1.75,4.85c1.17,1.44,2.65,2.16,4.45,2.16,2.07,0,3.59-.2,4.58-.61,.99-.41,2.16-1.37,3.5-2.9,2.07-2.34,3.86-4.99,5.39-7.95,1.53-2.96,3.1-5.79,4.72-8.49,3.68-5.84,7.37-11.57,11.05-17.19,3.68-5.62,7.5-11.26,11.46-16.92,.54,4.04,1.77,9.05,3.71,15.03,1.93,5.98,4.36,12.26,7.28,18.87,2.92,6.6,6.29,13.17,10.11,19.68,3.82,6.52,7.91,12.4,12.26,17.66,4.36,5.26,8.92,9.5,13.68,12.74,4.76,3.24,9.57,4.85,14.42,4.85,1.26,0,2.38-.43,3.37-1.28,.99-.86,1.48-2,1.48-3.44,0-2.34-.54-3.69-1.62-4.04Z"/>
</svg>